<svg width="112" height="117" viewBox="0 0 112 117" fill="none" xmlns="http://www.w3.org/2000/svg">
<rect x="52" y="8" width="4" height="4" fill="#42604B"/>
<rect x="20" y="20" width="16" height="4" fill="#42604B"/>
<rect x="76" y="96" width="16" height="4" fill="#42604B"/>
<rect x="20" y="96" width="16" height="4" fill="#42604B"/>
<rect x="76" y="20" width="16" height="4" fill="#42604B"/>
<rect x="56" y="8" width="4" height="4" fill="#42604B"/>
<rect x="52" y="44" width="8" height="4" fill="#42604B"/>
<rect x="48" y="72" width="16" height="4" fill="#42604B"/>
<rect x="48" y="40" width="4" height="8" fill="#42604B"/>
<rect x="60" y="40" width="4" height="8" fill="#42604B"/>
<rect x="68" y="52" width="4" height="16" fill="#42604B"/>
<rect x="40" y="52" width="4" height="16" fill="#42604B"/>
<rect x="48" y="12" width="4" height="4" fill="#42604B"/>
<rect x="8" y="52" width="4" height="4" fill="#42604B"/>
<rect x="8" y="64" width="4" height="4" fill="#42604B"/>
<rect x="100" y="52" width="4" height="4" fill="#42604B"/>
<rect x="100" y="64" width="4" height="4" fill="#42604B"/>
<rect x="44" y="48" width="4" height="4" fill="#42604B"/>
<rect x="20" y="40" width="4" height="4" fill="#42604B"/>
<rect x="88" y="40" width="4" height="4" fill="#42604B"/>
<rect x="36" y="52" width="4" height="4" fill="#42604B"/>
<rect x="36" y="64" width="4" height="4" fill="#42604B"/>
<rect x="72" y="64" width="4" height="4" fill="#42604B"/>
<rect x="72" y="52" width="4" height="4" fill="#42604B"/>
<rect x="44" y="68" width="4" height="4" fill="#42604B"/>
<rect x="64" y="68" width="4" height="4" fill="#42604B"/>
<rect x="64" y="48" width="4" height="4" fill="#42604B"/>
<rect x="40" y="28" width="4" height="4" fill="#42604B"/>
<rect x="16" y="24" width="4" height="16" fill="#42604B"/>
<rect x="16" y="80" width="4" height="16" fill="#42604B"/>
<rect x="92" y="80" width="4" height="16" fill="#42604B"/>
<rect x="92" y="24" width="4" height="16" fill="#42604B"/>
<rect x="68" y="28" width="4" height="4" fill="#42604B"/>
<rect x="88" y="76" width="4" height="4" fill="#42604B"/>
<rect x="20" y="76" width="4" height="4" fill="#42604B"/>
<rect x="68" y="88" width="4" height="4" fill="#42604B"/>
<rect x="40" y="88" width="4" height="4" fill="#42604B"/>
<rect x="60" y="12" width="4" height="4" fill="#42604B"/>
<rect x="48" y="104" width="4" height="4" fill="#42604B"/>
<rect x="60" y="104" width="4" height="4" fill="#42604B"/>
<rect x="52" y="108" width="8" height="4" fill="#42604B"/>
<rect x="60" y="76" width="4" height="4" fill="#42604B"/>
<rect x="48" y="76" width="4" height="4" fill="#42604B"/>
<rect x="68" y="24" width="8" height="4" fill="#42604B"/>
<rect x="84" y="72" width="8" height="4" fill="#42604B"/>
<rect x="20" y="72" width="8" height="4" fill="#42604B"/>
<rect x="20" y="44" width="8" height="4" fill="#42604B"/>
<rect x="84" y="44" width="8" height="4" fill="#42604B"/>
<rect x="28" y="68" width="8" height="4" fill="#42604B"/>
<rect x="76" y="68" width="8" height="4" fill="#42604B"/>
<rect x="92" y="48" width="8" height="4" fill="#42604B"/>
<rect x="92" y="68" width="8" height="4" fill="#42604B"/>
<rect x="12" y="68" width="8" height="4" fill="#42604B"/>
<rect x="12" y="48" width="8" height="4" fill="#42604B"/>
<rect x="76" y="48" width="8" height="4" fill="#42604B"/>
<rect x="28" y="48" width="8" height="4" fill="#42604B"/>
<rect x="68" y="92" width="8" height="4" fill="#42604B"/>
<rect x="36" y="92" width="8" height="4" fill="#42604B"/>
<rect x="36" y="24" width="8" height="4" fill="#42604B"/>
<rect x="44" y="16" width="4" height="8" fill="#42604B"/>
<rect x="44" y="96" width="4" height="8" fill="#42604B"/>
<rect x="64" y="96" width="4" height="8" fill="#42604B"/>
<rect x="104" y="56" width="4" height="8" fill="#42604B"/>
<rect x="4" y="56" width="4" height="8" fill="#42604B"/>
<rect x="64" y="16" width="4" height="8" fill="#42604B"/>
<rect x="64" y="32" width="4" height="8" fill="#42604B"/>
<rect x="64" y="80" width="4" height="8" fill="#42604B"/>
<rect x="44" y="80" width="4" height="8" fill="#42604B"/>
<rect x="44" y="32" width="4" height="8" fill="#42604B"/>
<rect x="48" y="48" width="16" height="24" fill="#3C2E33"/>
<rect x="48" y="48" width="16" height="24" fill="#3C2E33"/>
<rect x="44" y="52" width="4" height="16" fill="#3C2E33"/>
<rect x="64" y="52" width="4" height="16" fill="#3C2E33"/>
<rect x="52" y="12" width="8" height="32" fill="#E9536B"/>
<rect x="52" y="76" width="8" height="32" fill="#E9536B"/>
<rect x="104" y="56" width="8" height="32" transform="rotate(90 104 56)" fill="#E9536B"/>
<rect x="40" y="56" width="8" height="32" transform="rotate(90 40 56)" fill="#E9536B"/>
<rect x="76" y="24" width="16" height="16" fill="#E9536B"/>
<rect x="68" y="32" width="16" height="16" fill="#E9536B"/>
<rect x="20" y="24" width="16" height="16" fill="#E9536B"/>
<rect x="28" y="32" width="16" height="16" fill="#E9536B"/>
<rect x="76" y="80" width="16" height="16" fill="#E9536B"/>
<rect x="20" y="80" width="16" height="16" fill="#E9536B"/>
<rect x="28" y="72" width="16" height="16" fill="#E9536B"/>
<rect x="68" y="72" width="16" height="16" fill="#E9536B"/>
<rect x="36" y="28" width="4" height="4" fill="#E9536B"/>
<rect x="24" y="40" width="4" height="4" fill="#E9536B"/>
<rect x="72" y="28" width="4" height="4" fill="#E9536B"/>
<rect x="64" y="40" width="4" height="8" fill="#E9536B"/>
<rect x="44" y="40" width="4" height="8" fill="#E9536B"/>
<rect x="64" y="72" width="4" height="8" fill="#E9536B"/>
<rect x="64" y="88" width="4" height="8" fill="#E9536B"/>
<rect x="64" y="24" width="4" height="8" fill="#E9536B"/>
<rect x="44" y="24" width="4" height="8" fill="#E9536B"/>
<rect x="44" y="72" width="4" height="8" fill="#E9536B"/>
<rect x="44" y="88" width="4" height="8" fill="#E9536B"/>
<rect x="36" y="48" width="8" height="4" fill="#E9536B"/>
<rect x="20" y="48" width="8" height="4" fill="#E9536B"/>
<rect x="36" y="68" width="8" height="4" fill="#E9536B"/>
<rect x="20" y="68" width="8" height="4" fill="#E9536B"/>
<rect x="68" y="48" width="8" height="4" fill="#E9536B"/>
<rect x="84" y="48" width="8" height="4" fill="#E9536B"/>
<rect x="68" y="68" width="8" height="4" fill="#E9536B"/>
<rect x="84" y="68" width="8" height="4" fill="#E9536B"/>
<rect x="84" y="40" width="4" height="4" fill="#E9536B"/>
<rect x="24" y="76" width="4" height="4" fill="#E9536B"/>
<rect x="12" y="64" width="24" height="4" fill="#E9536B"/>
<rect x="12" y="52" width="24" height="4" fill="#E9536B"/>
<rect x="76" y="64" width="24" height="4" fill="#E9536B"/>
<rect x="76" y="52" width="24" height="4" fill="#E9536B"/>
<rect x="48" y="80" width="4" height="24" fill="#E9536B"/>
<rect x="60" y="80" width="4" height="24" fill="#E9536B"/>
<rect x="48" y="16" width="4" height="24" fill="#E9536B"/>
<rect x="60" y="16" width="4" height="24" fill="#E9536B"/>
<rect x="36" y="88" width="4" height="4" fill="#E9536B"/>
<rect x="84" y="76" width="4" height="4" fill="#E9536B"/>
<rect x="72" y="88" width="4" height="4" fill="#E9536B"/>
</svg>
