<svg width="264" height="186" viewBox="0 0 264 186" fill="none" xmlns="http://www.w3.org/2000/svg">
<rect x="152" y="8" width="8" height="8" fill="#090600"/>
<rect x="144" y="16" width="8" height="8" fill="#090600"/>
<rect x="144" y="24" width="8" height="8" fill="#090600"/>
<rect x="144" y="32" width="8" height="8" fill="#090600"/>
<rect x="128" y="24" width="8" height="8" fill="#090600"/>
<rect x="136" y="24" width="8" height="8" fill="#090600"/>
<rect x="136" y="40" width="8" height="8" fill="#090600"/>
<rect x="128" y="16" width="8" height="8" fill="#090600"/>
<rect x="120" y="8" width="8" height="8" fill="#090600"/>
<rect x="104" y="56" width="8" height="8" fill="#090600"/>
<rect x="112" y="48" width="8" height="8" fill="#090600"/>
<rect x="160" y="56" width="8" height="8" fill="#090600"/>
<rect x="96" y="64" width="8" height="8" fill="#090600"/>
<rect x="168" y="64" width="8" height="8" fill="#090600"/>
<rect x="140" y="92" width="4" height="4" fill="#090600"/>
<rect x="152" y="132" width="20" height="8" fill="#605B6A"/>
<rect x="132" y="112" width="4" height="8" fill="#090600"/>
<rect x="172" y="112" width="4" height="8" fill="#090600"/>
<rect x="116" y="112" width="4" height="8" fill="#090600"/>
<rect x="76" y="112" width="4" height="8" fill="#090600"/>
<rect x="140" y="104" width="28" height="4" fill="#090600"/>
<rect x="136" y="108" width="4" height="4" fill="#090600"/>
<rect x="136" y="120" width="4" height="4" fill="#090600"/>
<rect x="168" y="120" width="4" height="4" fill="#090600"/>
<rect x="112" y="120" width="4" height="4" fill="#090600"/>
<rect x="80" y="120" width="4" height="4" fill="#090600"/>
<rect x="112" y="108" width="4" height="4" fill="#090600"/>
<rect x="80" y="108" width="4" height="4" fill="#090600"/>
<rect x="84" y="104" width="28" height="4" fill="#090600"/>
<rect x="136" y="96" width="4" height="4" fill="#090600"/>
<rect x="168" y="108" width="4" height="4" fill="#090600"/>
<rect x="132" y="100" width="4" height="4" fill="#090600"/>
<rect x="116" y="100" width="4" height="4" fill="#090600"/>
<rect x="112" y="96" width="4" height="4" fill="#090600"/>
<rect x="124" y="128" width="4" height="2" fill="#090600"/>
<rect x="120" y="128" width="4" height="2" fill="#090600"/>
<rect x="116" y="124" width="4" height="4" fill="#090600"/>
<rect x="128" y="128" width="4" height="2" fill="#090600"/>
<rect x="100" y="128" width="4" height="4" fill="#090600"/>
<rect x="100" y="132" width="12" height="4" fill="#090600"/>
<rect x="116" y="132" width="20" height="4" fill="#090600"/>
<rect x="140" y="132" width="12" height="4" fill="#090600"/>
<rect x="144" y="136" width="4" height="4" fill="#090600"/>
<rect x="136" y="140" width="12" height="4" fill="#090600"/>
<rect x="140" y="144" width="4" height="4" fill="#090600"/>
<rect x="104" y="136" width="40" height="4" fill="#090600"/>
<rect x="104" y="140" width="12" height="4" fill="#090600"/>
<rect x="108" y="144" width="32" height="4" fill="#090600"/>
<rect x="132" y="124" width="4" height="4" fill="#090600"/>
<rect x="136" y="124" width="4" height="4" fill="#090600"/>
<rect x="148" y="128" width="4" height="4" fill="#090600"/>
<rect x="112" y="124" width="4" height="4" fill="#090600"/>
<rect x="108" y="92" width="4" height="4" fill="#090600"/>
<rect x="84" y="124" width="28" height="4" fill="#090600"/>
<rect x="84" y="112" width="16" height="4" fill="#090600"/>
<rect x="140" y="124" width="28" height="4" fill="#090600"/>
<rect x="176" y="64" width="8" height="8" fill="#090600"/>
<rect x="184" y="64" width="8" height="8" fill="#090600"/>
<rect x="184" y="72" width="8" height="8" fill="#090600"/>
<rect x="192" y="80" width="8" height="8" fill="#090600"/>
<rect x="200" y="104" width="8" height="8" fill="#090600"/>
<rect x="200" y="112" width="8" height="8" fill="#090600"/>
<rect x="208" y="120" width="8" height="8" fill="#090600"/>
<rect x="208" y="128" width="8" height="8" fill="#090600"/>
<rect x="208" y="136" width="8" height="8" fill="#090600"/>
<rect x="200" y="136" width="8" height="8" fill="#090600"/>
<rect x="192" y="128" width="8" height="8" fill="#090600"/>
<rect x="184" y="128" width="8" height="8" fill="#090600"/>
<rect x="184" y="120" width="8" height="8" fill="#090600"/>
<rect x="176" y="128" width="4" height="4" fill="#605B6A"/>
<rect x="172" y="132" width="4" height="4" fill="#605B6A"/>
<rect x="184" y="56" width="8" height="8" fill="#090600"/>
<rect x="184" y="48" width="8" height="8" fill="#090600"/>
<rect x="192" y="40" width="8" height="8" fill="#090600"/>
<rect x="200" y="48" width="8" height="8" fill="#090600"/>
<rect x="208" y="56" width="8" height="8" fill="#090600"/>
<rect x="208" y="48" width="8" height="8" fill="#090600"/>
<rect x="208" y="40" width="8" height="8" fill="#090600"/>
<rect x="208" y="32" width="8" height="8" fill="#090600"/>
<rect x="200" y="24" width="8" height="8" fill="#090600"/>
<rect x="192" y="16" width="8" height="8" fill="#090600"/>
<rect x="184" y="16" width="8" height="8" fill="#090600"/>
<rect x="176" y="16" width="8" height="8" fill="#090600"/>
<rect x="168" y="24" width="8" height="8" fill="#090600"/>
<rect x="160" y="32" width="8" height="8" fill="#090600"/>
<rect x="88" y="64" width="8" height="8" fill="#090600"/>
<rect x="112" y="40" width="8" height="8" fill="#090600"/>
<rect x="104" y="32" width="8" height="8" fill="#090600"/>
<rect x="96" y="24" width="8" height="8" fill="#090600"/>
<rect x="88" y="16" width="8" height="8" fill="#090600"/>
<rect x="80" y="16" width="8" height="8" fill="#090600"/>
<rect x="72" y="16" width="8" height="8" fill="#090600"/>
<rect x="64" y="24" width="8" height="8" fill="#090600"/>
<rect x="56" y="32" width="8" height="8" fill="#090600"/>
<rect x="56" y="40" width="8" height="8" fill="#090600"/>
<rect x="56" y="48" width="8" height="8" fill="#090600"/>
<rect x="56" y="56" width="8" height="8" fill="#090600"/>
<rect x="64" y="48" width="8" height="8" fill="#090600"/>
<rect x="72" y="40" width="8" height="8" fill="#090600"/>
<rect x="80" y="48" width="8" height="8" fill="#090600"/>
<rect x="80" y="56" width="8" height="8" fill="#090600"/>
<rect x="80" y="64" width="8" height="8" fill="#090600"/>
<rect x="72" y="72" width="8" height="8" fill="#090600"/>
<rect x="64" y="80" width="8" height="8" fill="#090600"/>
<rect x="72" y="88" width="8" height="8" fill="#090600"/>
<rect x="64" y="96" width="8" height="8" fill="#090600"/>
<rect x="56" y="104" width="8" height="8" fill="#090600"/>
<rect x="56" y="112" width="8" height="8" fill="#090600"/>
<rect x="48" y="120" width="8" height="8" fill="#090600"/>
<rect x="48" y="128" width="8" height="8" fill="#090600"/>
<rect x="56" y="128" width="8" height="8" fill="#090600"/>
<rect x="64" y="120" width="8" height="8" fill="#090600"/>
<rect x="64" y="128" width="8" height="8" fill="#090600"/>
<rect x="64" y="136" width="8" height="8" fill="#090600"/>
<rect x="72" y="144" width="8" height="8" fill="#090600"/>
<rect x="88" y="144" width="8" height="8" fill="#090600"/>
<rect x="104" y="152" width="32" height="8" fill="#090600"/>
<rect x="96" y="152" width="8" height="8" fill="#090600"/>
<rect x="136" y="152" width="8" height="8" fill="#090600"/>
<rect x="144" y="152" width="8" height="8" fill="#090600"/>
<rect x="152" y="144" width="8" height="8" fill="#090600"/>
<rect x="160" y="144" width="8" height="8" fill="#090600"/>
<rect x="176" y="144" width="8" height="8" fill="#090600"/>
<rect x="184" y="144" width="8" height="8" fill="#090600"/>
<rect x="184" y="136" width="8" height="8" fill="#090600"/>
<rect x="192" y="96" width="8" height="8" fill="#090600"/>
<rect x="200" y="88" width="8" height="8" fill="#090600"/>
<rect x="120" y="56" width="8" height="8" fill="#090600"/>
<rect x="120" y="16" width="8" height="40" fill="#090600"/>
<rect x="152" y="16" width="8" height="40" fill="#090600"/>
<rect x="128" y="48" width="8" height="8" fill="#090600"/>
<rect x="128" y="32" width="8" height="8" fill="#090600"/>
<rect x="144" y="48" width="8" height="8" fill="#090600"/>
<rect x="144" y="56" width="8" height="8" fill="#090600"/>
<path d="M128 56H136L132 60.5L128 64V56Z" fill="#090600"/>
<path d="M152 56H160L156 60.5L152 64V56Z" fill="#090600"/>
<path d="M112 56H120V64L116 60L112 56Z" fill="#090600"/>
<path d="M136 56H144V64L140 60L136 56Z" fill="#090600"/>
<rect x="136" y="32" width="8" height="8" fill="#6640AC"/>
<rect x="144" y="40" width="8" height="8" fill="#6640AC"/>
<rect x="128" y="40" width="8" height="8" fill="#6640AC"/>
<rect x="136" y="48" width="8" height="8" fill="#6640AC"/>
<rect x="140" y="112" width="16" height="4" fill="#090600"/>
<rect x="180" y="56" width="4" height="4" fill="#371A16"/>
<rect x="184" y="44" width="4" height="4" fill="#371A16"/>
<rect x="168" y="32" width="4" height="4" fill="#371A16"/>
<rect x="172" y="32" width="4" height="4" fill="#371A16"/>
<rect x="180" y="40" width="4" height="4" fill="#371A16"/>
<rect x="176" y="36" width="4" height="4" fill="#371A16"/>
<rect x="196" y="36" width="4" height="4" fill="#371A16"/>
<rect x="196" y="32" width="4" height="4" fill="#371A16"/>
<rect x="192" y="28" width="4" height="4" fill="#371A16"/>
<rect x="88" y="56" width="4" height="4" fill="#371A16"/>
<rect x="92" y="52" width="4" height="4" fill="#371A16"/>
<rect x="88" y="36" width="4" height="4" fill="#371A16"/>
<rect x="84" y="40" width="4" height="8" fill="#371A16"/>
<rect x="92" y="32" width="12" height="4" fill="#371A16"/>
<rect x="76" y="28" width="4" height="12" fill="#371A16"/>
<rect x="80" y="24" width="4" height="4" fill="#371A16"/>
<rect x="96" y="48" width="16" height="4" fill="#371A16"/>
<rect x="176" y="52" width="4" height="4" fill="#371A16"/>
<rect x="172" y="52" width="4" height="4" fill="#371A16"/>
<rect x="160" y="52" width="12" height="4" fill="#371A16"/>
<rect x="204" y="32" width="4" height="16" fill="#653537"/>
<rect x="200" y="32" width="4" height="16" fill="#653537"/>
<rect x="188" y="28" width="4" height="20" fill="#653537"/>
<rect x="184" y="24" width="4" height="20" fill="#653537"/>
<rect x="180" y="24" width="4" height="16" fill="#653537"/>
<rect x="168" y="60" width="16" height="4" fill="#653537"/>
<rect x="168" y="56" width="12" height="4" fill="#653537"/>
<rect x="180" y="44" width="4" height="12" fill="#653537"/>
<rect x="176" y="24" width="4" height="12" fill="#653537"/>
<rect x="160" y="40" width="20" height="12" fill="#653537"/>
<rect x="168" y="36" width="8" height="4" fill="#653537"/>
<rect x="192" y="32" width="4" height="8" fill="#653537"/>
<rect x="192" y="24" width="8" height="4" fill="#653537"/>
<rect x="196" y="28" width="4" height="4" fill="#653537"/>
<rect x="188" y="24" width="4" height="4" fill="#371A16"/>
<rect x="88" y="60" width="16" height="4" fill="#653537"/>
<rect x="92" y="56" width="12" height="4" fill="#653537"/>
<rect x="96" y="52" width="16" height="4" fill="#653537"/>
<rect x="88" y="40" width="24" height="8" fill="#653537"/>
<rect x="88" y="48" width="4" height="8" fill="#653537"/>
<rect x="92" y="48" width="4" height="4" fill="#653537"/>
<rect x="92" y="36" width="12" height="4" fill="#653537"/>
<rect x="76" y="24" width="4" height="4" fill="#653537"/>
<rect x="72" y="24" width="4" height="16" fill="#653537"/>
<rect x="84" y="32" width="8" height="4" fill="#653537"/>
<rect x="84" y="36" width="4" height="4" fill="#653537"/>
<rect x="64" y="32" width="8" height="16" fill="#653537"/>
<rect x="80" y="28" width="4" height="20" fill="#653537"/>
<rect x="84" y="24" width="12" height="8" fill="#653537"/>
<rect x="84" y="96" width="8" height="4" fill="#605B6A"/>
<rect x="124" y="84" width="8" height="4" fill="#605B6A"/>
<rect x="172" y="120" width="4" height="12" fill="#605B6A"/>
<rect x="152" y="128" width="20" height="4" fill="#605B6A"/>
<rect x="168" y="124" width="4" height="4" fill="#605B6A"/>
<rect x="148" y="136" width="4" height="4" fill="#605B6A"/>
<rect x="172" y="104" width="4" height="8" fill="#605B6A"/>
<rect x="84" y="128" width="16" height="12" fill="#605B6A"/>
<rect x="148" y="80" width="20" height="24" fill="#605B6A"/>
<rect x="168" y="80" width="24" height="4" fill="#3C3748"/>
<rect x="132" y="104" width="4" height="8" fill="#605B6A"/>
<rect x="132" y="120" width="4" height="4" fill="#605B6A"/>
<rect x="116" y="120" width="4" height="4" fill="#605B6A"/>
<rect x="136" y="104" width="4" height="4" fill="#605B6A"/>
<rect x="100" y="136" width="4" height="4" fill="#605B6A"/>
<rect x="116" y="104" width="4" height="8" fill="#605B6A"/>
<rect x="168" y="84" width="8" height="24" fill="#605B6A"/>
<rect x="160" y="96" width="8" height="8" fill="#605B6A"/>
<rect x="144" y="84" width="4" height="20" fill="#605B6A"/>
<rect x="136" y="92" width="4" height="4" fill="#605B6A"/>
<rect x="140" y="88" width="4" height="4" fill="#605B6A"/>
<rect x="116" y="88" width="4" height="12" fill="#605B6A"/>
<rect x="112" y="92" width="4" height="4" fill="#605B6A"/>
<rect x="140" y="96" width="4" height="8" fill="#605B6A"/>
<rect x="136" y="100" width="4" height="4" fill="#605B6A"/>
<rect x="80" y="104" width="4" height="4" fill="#605B6A"/>
<rect x="80" y="124" width="4" height="4" fill="#605B6A"/>
<rect x="188" y="116" width="4" height="4" fill="#605B6A"/>
<rect x="192" y="104" width="8" height="24" fill="#605B6A"/>
<rect x="200" y="120" width="8" height="16" fill="#605B6A"/>
<rect x="64" y="104" width="8" height="8" fill="#605B6A"/>
<rect x="64" y="112" width="4" height="8" fill="#605B6A"/>
<rect x="68" y="116" width="4" height="4" fill="#605B6A"/>
<rect x="56" y="120" width="8" height="8" fill="#605B6A"/>
<rect x="84" y="136" width="4" height="4" fill="#605B6A"/>
<rect x="80" y="132" width="4" height="4" fill="#605B6A"/>
<rect x="76" y="120" width="4" height="12" fill="#605B6A"/>
<rect x="84" y="96" width="28" height="8" fill="#605B6A"/>
<rect x="92" y="80" width="20" height="12" fill="#605B6A"/>
<rect x="120" y="88" width="12" height="40" fill="#605B6A"/>
<rect x="176" y="88" width="4" height="40" fill="#605B6A"/>
<rect x="112" y="100" width="4" height="8" fill="#605B6A"/>
<rect x="80" y="128" width="4" height="4" fill="#605B6A"/>
<rect x="84" y="88" width="4" height="4" fill="#605B6A"/>
<rect x="84" y="92" width="24" height="4" fill="#605B6A"/>
<rect x="132" y="88" width="4" height="12" fill="#605B6A"/>
<rect x="88" y="84" width="4" height="8" fill="#605B6A"/>
<rect x="180" y="88" width="20" height="8" fill="#3C3748"/>
<rect x="168" y="144" width="8" height="8" fill="#3C3748"/>
<rect x="80" y="144" width="8" height="8" fill="#3C3748"/>
<rect x="112" y="148" width="40" height="4" fill="#3C3748"/>
<rect x="96" y="148" width="16" height="4" fill="#3C3748"/>
<rect x="72" y="136" width="12" height="4" fill="#3C3748"/>
<rect x="72" y="140" width="32" height="4" fill="#3C3748"/>
<rect x="144" y="140" width="32" height="4" fill="#3C3748"/>
<rect x="96" y="144" width="12" height="4" fill="#3C3748"/>
<rect x="144" y="144" width="8" height="4" fill="#3C3748"/>
<rect x="72" y="96" width="4" height="24" fill="#3C3748"/>
<rect x="76" y="96" width="4" height="16" fill="#3C3748"/>
<rect x="80" y="72" width="4" height="32" fill="#3C3748"/>
<rect x="64" y="88" width="8" height="8" fill="#3C3748"/>
<rect x="72" y="120" width="4" height="16" fill="#3C3748"/>
<rect x="76" y="132" width="4" height="4" fill="#3C3748"/>
<rect x="84" y="72" width="100" height="4" fill="#3C3748"/>
<rect x="104" y="64" width="64" height="8" fill="#3C3748"/>
<rect x="84" y="76" width="100" height="4" fill="#3C3748"/>
<rect x="84" y="80" width="4" height="4" fill="#3C3748"/>
<rect x="88" y="80" width="4" height="4" fill="#3C3748"/>
<rect x="84" y="84" width="4" height="4" fill="#3C3748"/>
<rect x="112" y="80" width="36" height="4" fill="#3C3748"/>
<rect x="112" y="84" width="12" height="4" fill="#3C3748"/>
<rect x="112" y="88" width="4" height="4" fill="#3C3748"/>
<rect x="132" y="84" width="12" height="4" fill="#3C3748"/>
<rect x="136" y="88" width="4" height="4" fill="#3C3748"/>
<rect x="68" y="112" width="4" height="4" fill="#3C3748"/>
<rect x="184" y="96" width="4" height="24" fill="#3C3748"/>
<rect x="180" y="96" width="4" height="48" fill="#3C3748"/>
<rect x="176" y="132" width="4" height="12" fill="#3C3748"/>
<rect x="172" y="136" width="4" height="4" fill="#3C3748"/>
<rect x="188" y="96" width="4" height="20" fill="#3C3748"/>
<rect x="176" y="84" width="16" height="4" fill="#3C3748"/>
<rect x="72" y="80" width="8" height="8" fill="#3C3748"/>
<rect x="200" y="96" width="8" height="4" fill="#3C3748"/>
<rect x="148" y="108" width="12" height="4" fill="white"/>
<rect x="92" y="108" width="12" height="4" fill="white"/>
<rect x="140" y="116" width="20" height="4" fill="white"/>
<rect x="84" y="116" width="20" height="4" fill="white"/>
<rect x="160" y="108" width="8" height="16" fill="white"/>
<rect x="104" y="108" width="8" height="16" fill="white"/>
<rect x="140" y="108" width="8" height="4" fill="white"/>
<rect x="84" y="108" width="8" height="4" fill="white"/>
<rect x="168" y="112" width="4" height="8" fill="white"/>
<rect x="156" y="112" width="4" height="4" fill="white"/>
<rect x="136" y="132" width="4" height="4" fill="white"/>
<rect x="112" y="132" width="4" height="4" fill="white"/>
<rect x="120" y="130" width="12" height="2" fill="white"/>
<rect x="104" y="128" width="16" height="4" fill="white"/>
<rect x="132" y="128" width="16" height="4" fill="white"/>
<rect x="136" y="112" width="4" height="8" fill="white"/>
<rect x="112" y="112" width="4" height="8" fill="white"/>
<rect x="100" y="112" width="4" height="4" fill="white"/>
<rect x="80" y="112" width="4" height="8" fill="white"/>
<rect x="140" y="120" width="20" height="4" fill="white"/>
<rect x="84" y="120" width="20" height="4" fill="white"/>
<rect x="116" y="140" width="20" height="4" fill="#B4282E"/>
<path d="M132 60.5L136 56V64H128L132 60.5Z" fill="#3C3748"/>
<path d="M140.5 60.5L136 56V64H144L140.5 60.5Z" fill="#3C3748"/>
<path d="M116.5 60.5L112 56V64H120L116.5 60.5Z" fill="#3C3748"/>
<path d="M156 60.5L160 56V64H152L156 60.5Z" fill="#3C3748"/>
</svg>
