<svg width="264" height="186" viewBox="0 0 264 186" fill="none" xmlns="http://www.w3.org/2000/svg">
<rect x="128" y="80" width="16" height="8" fill="#F4EDD6"/>
<rect x="152" y="80" width="8" height="8" fill="#F4EDD6"/>
<rect x="176" y="80" width="8" height="8" fill="#F4EDD6"/>
<rect x="184" y="80" width="8" height="20" fill="#F4EDD6"/>
<rect x="188" y="100" width="4" height="44" fill="#F4EDD6"/>
<rect x="128" y="100" width="8" height="8" fill="#534E5E"/>
<rect x="132" y="108" width="4" height="4" fill="#534E5E"/>
<rect x="184" y="104" width="4" height="4" fill="#534E5E"/>
<rect x="180" y="100" width="8" height="4" fill="#534E5E"/>
<rect x="160" y="96" width="24" height="4" fill="#534E5E"/>
<rect x="112" y="140" width="4" height="4" fill="#534E5E"/>
<rect x="152" y="104" width="4" height="4" fill="#534E5E"/>
<rect x="152" y="132" width="4" height="4" fill="#534E5E"/>
<rect x="180" y="136" width="4" height="4" fill="#534E5E"/>
<rect x="184" y="128" width="4" height="4" fill="#534E5E"/>
<rect x="152" y="100" width="4" height="4" fill="#534E5E"/>
<rect x="156" y="100" width="4" height="4" fill="#534E5E"/>
<rect x="80" y="64" width="8" height="8" fill="#090600"/>
<rect x="72" y="64" width="8" height="8" fill="#090600"/>
<rect x="64" y="72" width="8" height="8" fill="#090600"/>
<rect x="64" y="80" width="8" height="8" fill="#090600"/>
<rect x="64" y="88" width="8" height="8" fill="#090600"/>
<rect x="56" y="96" width="8" height="8" fill="#090600"/>
<rect x="56" y="104" width="8" height="8" fill="#090600"/>
<rect x="48" y="112" width="8" height="8" fill="#090600"/>
<rect x="40" y="120" width="8" height="8" fill="#090600"/>
<rect x="48" y="128" width="8" height="8" fill="#090600"/>
<rect x="56" y="136" width="8" height="8" fill="#090600"/>
<rect x="64" y="144" width="8" height="8" fill="#090600"/>
<rect x="72" y="152" width="8" height="8" fill="#090600"/>
<rect x="64" y="112" width="8" height="8" fill="#090600"/>
<rect x="72" y="104" width="8" height="8" fill="#090600"/>
<rect x="72" y="112" width="8" height="8" fill="#090600"/>
<rect x="72" y="120" width="8" height="8" fill="#090600"/>
<rect x="72" y="128" width="8" height="8" fill="#090600"/>
<rect x="112" y="100" width="4" height="4" fill="#090600"/>
<rect x="116" y="100" width="4" height="4" fill="#090600"/>
<rect x="108" y="100" width="4" height="4" fill="#090600"/>
<rect x="104" y="100" width="4" height="4" fill="#090600"/>
<rect x="100" y="104" width="4" height="4" fill="#090600"/>
<rect x="100" y="132" width="4" height="4" fill="#090600"/>
<rect x="124" y="128" width="4" height="8" fill="#090600"/>
<rect x="100" y="132" width="4" height="4" fill="#090600"/>
<rect x="156" y="132" width="4" height="4" fill="#090600"/>
<rect x="104" y="136" width="4" height="4" fill="#090600"/>
<rect x="160" y="136" width="20" height="4" fill="#090600"/>
<rect x="96" y="108" width="4" height="4" fill="#090600"/>
<rect x="96" y="112" width="4" height="4" fill="#090600"/>
<rect x="96" y="116" width="4" height="4" fill="#090600"/>
<rect x="96" y="120" width="4" height="4" fill="#090600"/>
<rect x="96" y="124" width="4" height="8" fill="#090600"/>
<rect x="104" y="124" width="4" height="4" fill="#090600"/>
<rect x="108" y="120" width="4" height="8" fill="#090600"/>
<rect x="108" y="128" width="4" height="4" fill="#090600"/>
<rect x="108" y="120" width="8" height="20" fill="#090600"/>
<rect x="116" y="120" width="4" height="4" fill="#090600"/>
<rect x="120" y="124" width="4" height="16" fill="#090600"/>
<rect x="124" y="124" width="4" height="4" fill="#090600"/>
<rect x="116" y="124" width="4" height="16" fill="#090600"/>
<rect x="136" y="136" width="4" height="4" fill="#090600"/>
<rect x="140" y="140" width="4" height="4" fill="#090600"/>
<rect x="144" y="136" width="4" height="4" fill="#090600"/>
<rect x="128" y="124" width="4" height="4" fill="#090600"/>
<rect x="188" y="152" width="4" height="4" fill="#090600"/>
<rect x="136" y="132" width="12" height="4" fill="#534E5E"/>
<rect x="128" y="128" width="24" height="8" fill="#534E5E"/>
<rect x="132" y="124" width="4" height="4" fill="#534E5E"/>
<rect x="128" y="132" width="4" height="4" fill="#534E5E"/>
<rect x="124" y="136" width="8" height="4" fill="#534E5E"/>
<rect x="120" y="140" width="4" height="4" fill="#534E5E"/>
<rect x="116" y="140" width="4" height="4" fill="#534E5E"/>
<rect x="164" y="140" width="4" height="4" fill="#534E5E"/>
<rect x="160" y="140" width="4" height="4" fill="#534E5E"/>
<rect x="96" y="104" width="4" height="4" fill="#534E5E"/>
<rect x="96" y="100" width="4" height="4" fill="#534E5E"/>
<rect x="100" y="100" width="4" height="4" fill="#534E5E"/>
<rect x="96" y="96" width="4" height="4" fill="#534E5E"/>
<rect x="100" y="96" width="4" height="4" fill="#534E5E"/>
<rect x="104" y="96" width="4" height="4" fill="#534E5E"/>
<rect x="108" y="96" width="4" height="4" fill="#534E5E"/>
<rect x="112" y="96" width="4" height="4" fill="#534E5E"/>
<rect x="116" y="96" width="4" height="4" fill="#534E5E"/>
<rect x="120" y="96" width="4" height="4" fill="#534E5E"/>
<rect x="124" y="96" width="4" height="4" fill="#534E5E"/>
<rect x="128" y="96" width="4" height="4" fill="#534E5E"/>
<rect x="132" y="96" width="28" height="4" fill="#534E5E"/>
<rect x="132" y="100" width="20" height="28" fill="#534E5E"/>
<rect x="124" y="100" width="4" height="4" fill="#534E5E"/>
<rect x="128" y="108" width="4" height="4" fill="#090600"/>
<rect x="124" y="104" width="4" height="4" fill="#090600"/>
<rect x="120" y="100" width="4" height="4" fill="#090600"/>
<rect x="108" y="104" width="4" height="4" fill="#090600"/>
<rect x="108" y="108" width="4" height="4" fill="#090600"/>
<rect x="104" y="112" width="4" height="4" fill="#090600"/>
<rect x="104" y="108" width="4" height="4" fill="#FDFEFB"/>
<rect x="104" y="104" width="4" height="4" fill="#FDFEFB"/>
<rect x="100" y="108" width="4" height="4" fill="#FDFEFB"/>
<rect x="100" y="112" width="4" height="4" fill="#FDFEFB"/>
<rect x="104" y="128" width="4" height="8" fill="#FDFEFB"/>
<rect x="160" y="128" width="4" height="8" fill="#FDFEFB"/>
<rect x="100" y="116" width="16" height="4" fill="#FDFEFB"/>
<rect x="100" y="120" width="4" height="12" fill="#FDFEFB"/>
<rect x="116" y="116" width="4" height="4" fill="#FDFEFB"/>
<rect x="116" y="112" width="4" height="4" fill="#FDFEFB"/>
<rect x="128" y="116" width="4" height="4" fill="#FDFEFB"/>
<rect x="160" y="104" width="4" height="4" fill="#FDFEFB"/>
<rect x="160" y="108" width="4" height="4" fill="#FDFEFB"/>
<rect x="156" y="108" width="4" height="4" fill="#FDFEFB"/>
<rect x="156" y="112" width="4" height="4" fill="#FDFEFB"/>
<rect x="156" y="120" width="4" height="12" fill="#FDFEFB"/>
<rect x="172" y="116" width="4" height="4" fill="#FDFEFB"/>
<rect x="172" y="112" width="4" height="4" fill="#FDFEFB"/>
<rect x="176" y="112" width="4" height="4" fill="#FDFEFB"/>
<rect x="180" y="112" width="4" height="4" fill="#FDFEFB"/>
<rect x="176" y="116" width="4" height="4" fill="#FDFEFB"/>
<rect x="180" y="116" width="4" height="4" fill="#FDFEFB"/>
<rect x="184" y="116" width="4" height="4" fill="#FDFEFB"/>
<rect x="156" y="116" width="16" height="4" fill="#FDFEFB"/>
<rect x="104" y="120" width="4" height="4" fill="#090600"/>
<rect x="120" y="108" width="4" height="12" fill="#090600"/>
<rect x="128" y="112" width="4" height="8" fill="#090600"/>
<rect x="112" y="112" width="4" height="4" fill="#090600"/>
<rect x="152" y="120" width="4" height="4" fill="#090600"/>
<rect x="152" y="116" width="4" height="4" fill="#090600"/>
<rect x="152" y="112" width="4" height="4" fill="#090600"/>
<rect x="152" y="108" width="4" height="4" fill="#090600"/>
<rect x="164" y="100" width="4" height="4" fill="#090600"/>
<rect x="168" y="100" width="4" height="4" fill="#090600"/>
<rect x="172" y="100" width="4" height="4" fill="#090600"/>
<rect x="176" y="100" width="4" height="4" fill="#090600"/>
<rect x="180" y="104" width="4" height="4" fill="#090600"/>
<rect x="180" y="108" width="4" height="12" fill="#090600"/>
<rect x="176" y="108" width="4" height="12" fill="#090600"/>
<rect x="176" y="104" width="4" height="4" fill="#090600"/>
<rect x="172" y="104" width="4" height="4" fill="#090600"/>
<rect x="168" y="104" width="4" height="4" fill="#090600"/>
<rect x="164" y="104" width="4" height="4" fill="#090600"/>
<rect x="164" y="108" width="4" height="4" fill="#090600"/>
<rect x="160" y="112" width="4" height="4" fill="#090600"/>
<rect x="160" y="120" width="4" height="4" fill="#090600"/>
<rect x="180" y="124" width="4" height="4" fill="#090600"/>
<rect x="184" y="108" width="4" height="20" fill="#090600"/>
<rect x="176" y="124" width="4" height="4" fill="#090600"/>
<rect x="172" y="120" width="4" height="4" fill="#090600"/>
<rect x="176" y="120" width="4" height="4" fill="#090600"/>
<rect x="180" y="120" width="4" height="4" fill="#090600"/>
<rect x="168" y="120" width="4" height="4" fill="#090600"/>
<rect x="168" y="112" width="4" height="4" fill="#090600"/>
<rect x="172" y="108" width="4" height="12" fill="#090600"/>
<rect x="168" y="108" width="4" height="4" fill="#090600"/>
<rect x="164" y="112" width="4" height="4" fill="#090600"/>
<rect x="164" y="120" width="4" height="4" fill="#090600"/>
<rect x="160" y="124" width="4" height="4" fill="#090600"/>
<rect x="164" y="124" width="4" height="12" fill="#090600"/>
<rect x="168" y="124" width="4" height="12" fill="#090600"/>
<rect x="176" y="128" width="4" height="8" fill="#090600"/>
<rect x="180" y="128" width="4" height="8" fill="#090600"/>
<rect x="172" y="124" width="4" height="12" fill="#090600"/>
<rect x="156" y="104" width="4" height="4" fill="#090600"/>
<rect x="160" y="100" width="4" height="4" fill="#090600"/>
<rect x="152" y="124" width="4" height="8" fill="#090600"/>
<rect x="120" y="120" width="4" height="4" fill="#090600"/>
<rect x="124" y="120" width="4" height="4" fill="#090600"/>
<rect x="128" y="120" width="4" height="4" fill="#090600"/>
<rect x="116" y="108" width="4" height="12" fill="#090600"/>
<rect x="112" y="108" width="4" height="4" fill="#090600"/>
<rect x="124" y="108" width="4" height="12" fill="#090600"/>
<rect x="120" y="104" width="4" height="4" fill="#090600"/>
<rect x="116" y="104" width="4" height="4" fill="#090600"/>
<rect x="112" y="104" width="4" height="4" fill="#090600"/>
<rect x="108" y="112" width="4" height="4" fill="#090600"/>
<rect x="72" y="136" width="8" height="8" fill="#090600"/>
<rect x="64" y="136" width="8" height="8" fill="#090600"/>
<rect x="80" y="160" width="8" height="8" fill="#090600"/>
<rect x="88" y="160" width="8" height="8" fill="#090600"/>
<rect x="96" y="160" width="8" height="8" fill="#090600"/>
<rect x="104" y="160" width="8" height="8" fill="#090600"/>
<rect x="112" y="160" width="8" height="8" fill="#090600"/>
<rect x="120" y="160" width="8" height="8" fill="#090600"/>
<rect x="168" y="160" width="8" height="8" fill="#090600"/>
<rect x="128" y="160" width="8" height="8" fill="#090600"/>
<rect x="136" y="160" width="8" height="8" fill="#090600"/>
<rect x="144" y="160" width="8" height="8" fill="#090600"/>
<rect x="152" y="160" width="8" height="8" fill="#090600"/>
<rect x="160" y="160" width="8" height="8" fill="#090600"/>
<rect x="176" y="156" width="8" height="4" fill="#090600"/>
<rect x="184" y="156" width="8" height="4" fill="#090600"/>
<rect x="192" y="144" width="8" height="8" fill="#090600"/>
<rect x="192" y="136" width="8" height="8" fill="#090600"/>
<rect x="200" y="136" width="8" height="8" fill="#090600"/>
<rect x="208" y="128" width="8" height="8" fill="#090600"/>
<rect x="216" y="120" width="8" height="8" fill="#090600"/>
<rect x="208" y="112" width="8" height="8" fill="#090600"/>
<rect x="200" y="112" width="8" height="8" fill="#090600"/>
<rect x="192" y="128" width="8" height="8" fill="#090600"/>
<rect x="192" y="120" width="8" height="8" fill="#090600"/>
<rect x="192" y="112" width="8" height="8" fill="#090600"/>
<rect x="192" y="104" width="8" height="8" fill="#090600"/>
<rect x="192" y="96" width="8" height="8" fill="#090600"/>
<rect x="192" y="88" width="8" height="8" fill="#090600"/>
<rect x="192" y="80" width="8" height="8" fill="#090600"/>
<rect x="184" y="72" width="8" height="8" fill="#090600"/>
<rect x="176" y="64" width="8" height="8" fill="#090600"/>
<rect x="176" y="56" width="8" height="8" fill="#090600"/>
<rect x="168" y="48" width="8" height="8" fill="#090600"/>
<rect x="160" y="56" width="8" height="8" fill="#090600"/>
<rect x="88" y="64" width="8" height="8" fill="#090600"/>
<rect x="88" y="56" width="8" height="8" fill="#090600"/>
<rect x="96" y="48" width="8" height="8" fill="#090600"/>
<rect x="104" y="56" width="8" height="8" fill="#090600"/>
<rect x="96" y="64" width="8" height="8" fill="#090600"/>
<rect x="112" y="56" width="8" height="8" fill="#090600"/>
<rect x="120" y="64" width="8" height="8" fill="#090600"/>
<rect x="128" y="56" width="8" height="8" fill="#090600"/>
<rect x="136" y="48" width="8" height="8" fill="#090600"/>
<rect x="144" y="56" width="8" height="8" fill="#090600"/>
<rect x="152" y="64" width="8" height="8" fill="#090600"/>
<rect x="160" y="64" width="8" height="8" fill="#090600"/>
<rect x="168" y="64" width="8" height="8" fill="#090600"/>
<rect x="136" y="32" width="8" height="8" fill="#B4282E"/>
<rect x="136" y="40" width="8" height="8" fill="#B4282E"/>
<rect x="144" y="32" width="8" height="8" fill="#B4282E"/>
<rect x="136" y="24" width="8" height="8" fill="#B4282E"/>
<rect x="128" y="32" width="8" height="8" fill="#B4282E"/>
<rect x="136" y="32" width="8" height="8" fill="#090600"/>
<rect x="120" width="8" height="8" fill="#090600"/>
<rect x="120" y="16" width="8" height="8" fill="#090600"/>
<rect x="120" y="8" width="8" height="8" fill="#090600"/>
<rect x="128" y="16" width="8" height="8" fill="#090600"/>
<rect x="144" y="16" width="8" height="8" fill="#090600"/>
<rect x="152" y="8" width="8" height="8" fill="#090600"/>
<rect x="120" y="24" width="8" height="8" fill="#090600"/>
<rect x="120" y="32" width="8" height="8" fill="#090600"/>
<rect x="120" y="40" width="8" height="8" fill="#090600"/>
<rect x="120" y="48" width="8" height="8" fill="#090600"/>
<rect x="120" y="56" width="8" height="8" fill="#090600"/>
<rect x="152" y="16" width="8" height="8" fill="#090600"/>
<rect x="152" y="24" width="8" height="8" fill="#090600"/>
<rect x="128" y="40" width="8" height="8" fill="#090600"/>
<rect x="152" y="32" width="8" height="8" fill="#090600"/>
<rect x="152" y="40" width="8" height="8" fill="#090600"/>
<rect x="152" y="48" width="8" height="8" fill="#090600"/>
<rect x="152" y="56" width="8" height="8" fill="#090600"/>
<rect x="144" y="48" width="8" height="8" fill="#090600"/>
<rect x="128" y="48" width="8" height="8" fill="#090600"/>
<rect x="144" y="24" width="8" height="8" fill="#090600"/>
<rect x="128" y="24" width="8" height="8" fill="#090600"/>
<rect x="144" y="40" width="8" height="8" fill="#090600"/>
<rect x="152" y="24" width="8" height="8" fill="#090600"/>
<rect x="128" y="8" width="8" height="8" fill="#090600"/>
<rect x="136" y="16" width="8" height="8" fill="#090600"/>
<rect x="144" y="8" width="8" height="8" fill="#090600"/>
<rect x="152" width="8" height="8" fill="#090600"/>
<rect x="168" y="56" width="8" height="8" fill="#853E42"/>
<rect x="96" y="56" width="8" height="8" fill="#853E42"/>
<rect x="56" y="112" width="8" height="8" fill="#534E5E"/>
<rect x="56" y="120" width="8" height="8" fill="#534E5E"/>
<rect x="48" y="120" width="8" height="8" fill="#534E5E"/>
<rect x="64" y="120" width="8" height="8" fill="#534E5E"/>
<rect x="56" y="128" width="8" height="8" fill="#534E5E"/>
<rect x="64" y="128" width="8" height="8" fill="#534E5E"/>
<rect x="200" y="120" width="8" height="8" fill="#534E5E"/>
<rect x="208" y="120" width="8" height="8" fill="#534E5E"/>
<rect x="200" y="128" width="8" height="8" fill="#534E5E"/>
<rect x="120" y="80" width="8" height="8" fill="#534E5E"/>
<rect x="112" y="80" width="8" height="8" fill="#534E5E"/>
<rect x="104" y="80" width="8" height="8" fill="#534E5E"/>
<rect x="96" y="80" width="8" height="8" fill="#534E5E"/>
<rect x="88" y="88" width="8" height="8" fill="#534E5E"/>
<rect x="88" y="96" width="8" height="8" fill="#534E5E"/>
<rect x="88" y="104" width="8" height="8" fill="#534E5E"/>
<rect x="88" y="112" width="8" height="8" fill="#534E5E"/>
<rect x="88" y="120" width="8" height="8" fill="#534E5E"/>
<rect x="88" y="128" width="8" height="8" fill="#534E5E"/>
<rect x="88" y="136" width="8" height="8" fill="#534E5E"/>
<rect x="96" y="144" width="8" height="8" fill="#534E5E"/>
<rect x="104" y="144" width="8" height="8" fill="#534E5E"/>
<rect x="128" y="88" width="8" height="8" fill="#534E5E"/>
<rect x="136" y="88" width="8" height="8" fill="#534E5E"/>
<rect x="144" y="80" width="8" height="8" fill="#534E5E"/>
<rect x="152" y="88" width="8" height="8" fill="#534E5E"/>
<rect x="160" y="80" width="8" height="8" fill="#534E5E"/>
<rect x="168" y="80" width="8" height="8" fill="#534E5E"/>
<rect x="176" y="88" width="8" height="8" fill="#534E5E"/>
<rect x="168" y="140" width="16" height="4" fill="#534E5E"/>
<rect x="184" y="132" width="4" height="4" fill="#534E5E"/>
<rect x="184" y="136" width="4" height="8" fill="#534E5E"/>
<rect x="176" y="144" width="8" height="8" fill="#534E5E"/>
<rect x="168" y="144" width="8" height="8" fill="#534E5E"/>
<rect x="160" y="144" width="8" height="8" fill="#534E5E"/>
<rect x="152" y="144" width="8" height="8" fill="#534E5E"/>
<rect x="120" y="144" width="32" height="8" fill="#534E5E"/>
<rect x="112" y="144" width="8" height="8" fill="#534E5E"/>
<rect x="104" y="140" width="8" height="4" fill="#534E5E"/>
<rect x="116" y="140" width="16" height="4" fill="#534E5E"/>
<rect x="152" y="140" width="16" height="4" fill="#534E5E"/>
<rect x="140" y="136" width="4" height="4" fill="#534E5E"/>
<rect x="132" y="136" width="4" height="4" fill="#534E5E"/>
<rect x="136" y="140" width="4" height="4" fill="#534E5E"/>
<rect x="132" y="140" width="4" height="4" fill="#534E5E"/>
<rect x="144" y="140" width="4" height="4" fill="#534E5E"/>
<rect x="148" y="140" width="4" height="4" fill="#534E5E"/>
<rect x="148" y="136" width="12" height="4" fill="#534E5E"/>
<rect x="96" y="136" width="8" height="8" fill="#534E5E"/>
<rect x="96" y="132" width="4" height="4" fill="#534E5E"/>
<rect x="96" y="88" width="8" height="8" fill="#534E5E"/>
<rect x="104" y="88" width="8" height="8" fill="#534E5E"/>
<rect x="112" y="88" width="8" height="8" fill="#534E5E"/>
<rect x="120" y="88" width="8" height="8" fill="#534E5E"/>
<rect x="144" y="88" width="8" height="8" fill="#534E5E"/>
<rect x="160" y="88" width="8" height="8" fill="#534E5E"/>
<rect x="168" y="88" width="8" height="8" fill="#534E5E"/>
<rect x="104" y="88" width="8" height="8" fill="#534E5E"/>
<rect x="104" y="64" width="16" height="16" fill="#F4EDD6"/>
<rect x="72" y="72" width="32" height="8" fill="#F4EDD6"/>
<rect x="120" y="72" width="64" height="8" fill="#F4EDD6"/>
<rect x="88" y="80" width="8" height="8" fill="#F4EDD6"/>
<rect x="128" y="64" width="24" height="8" fill="#F4EDD6"/>
<rect x="136" y="56" width="8" height="8" fill="#F4EDD6"/>
<rect x="64" y="96" width="8" height="16" fill="#F4EDD6"/>
<rect x="80" y="104" width="8" height="56" fill="#F4EDD6"/>
<rect x="72" y="144" width="8" height="8" fill="#F4EDD6"/>
<rect x="88" y="144" width="8" height="8" fill="#F4EDD6"/>
<rect x="184" y="144" width="8" height="8" fill="#F4EDD6"/>
<rect x="176" y="152" width="12" height="4" fill="#F4EDD6"/>
<rect x="88" y="152" width="88" height="8" fill="#F4EDD6"/>
<rect x="72" y="80" width="16" height="24" fill="#F4EDD6"/>
</svg>
